# xmcd
#
# Track frame offsets:
#	150
#	11327
#	22140
#	33800
#	45310
#	55497
#	66222
#	76542
#	94472
#	105935
#	122182
#	132220
#	145427
#	158282
#	169632
#	181592
#	197197
#	206680
#	224222
#	233860
#	251340
#	263162
#
# Disc length: 3717 seconds
#
# Revision: 0
# Processed by: cddbd v1.5.2PL0 Copyright (c) Steve Scherf et al.
# Submitted via: dBpowerAMP V4.0
#
DISCID=290e8316
DTITLE=Jennifer Wilson - Simply The Best
DYEAR=1993
DGENRE=Country
TTITLE0=Are You From Dixie
TTITLE1=You Win Again
TTITLE2=San Antonio Rose
TTITLE3=Before The Next Tear Drop Falls
TTITLE4=There Stands The Glass
TTITLE5=I've Been Everywhere
TTITLE6=I Can't Stop Loving You
TTITLE7=Grandpa
TTITLE8=If They Could See Me Now
TTITLE9=Yellow Roses
TTITLE10=Divorce Me C.O.D.
TTITLE11=When I Die
TTITLE12=There Goes My Everything
TTITLE13=Here's A Quarter
TTITLE14=Oklahoma Hills
TTITLE15=I Always Get Lucky
TTITLE16=Big Mamoo
TTITLE17=Never No More
TTITLE18=Act Naturally
TTITLE19=I'm So Lonesome
TTITLE20=Ace In The Hole
TTITLE21=One Day At A Time
EXTD=
EXTT0=
EXTT1=
EXTT2=
EXTT3=
EXTT4=
EXTT5=
EXTT6=
EXTT7=
EXTT8=
EXTT9=
EXTT10=
EXTT11=
EXTT12=
EXTT13=
EXTT14=
EXTT15=
EXTT16=
EXTT17=
EXTT18=
EXTT19=
EXTT20=
EXTT21=
PLAYORDER=
